<mxfile host="app.diagrams.net" modified="2023-08-13T17:25:39.972Z" agent="Mozilla/5.0 (Macintosh; Intel Mac OS X 10.15; rv:109.0) Gecko/20100101 Firefox/116.0" etag="Dsp_LxX623fGTuXX2Bcp" version="21.6.8" type="device">
  <diagram name="Page-1" id="DWE2Nz5vNYb2IIFiz-MD">
    <mxGraphModel dx="1728" dy="1791" grid="1" gridSize="10" guides="1" tooltips="1" connect="1" arrows="1" fold="1" page="1" pageScale="1" pageWidth="1100" pageHeight="850" math="0" shadow="0">
      <root>
        <mxCell id="0" />
        <mxCell id="1" parent="0" />
        <mxCell id="Q1-ItS3ApQH2aDQjOX0Z-76" value="VPC&lt;br&gt;(13)" style="points=[[0,0],[0.25,0],[0.5,0],[0.75,0],[1,0],[1,0.25],[1,0.5],[1,0.75],[1,1],[0.75,1],[0.5,1],[0.25,1],[0,1],[0,0.75],[0,0.5],[0,0.25]];outlineConnect=0;gradientColor=none;html=1;whiteSpace=wrap;fontSize=12;fontStyle=0;container=1;pointerEvents=0;collapsible=0;recursiveResize=0;shape=mxgraph.aws4.group;grIcon=mxgraph.aws4.group_vpc;strokeColor=#248814;fillColor=none;verticalAlign=top;align=left;spacingLeft=30;fontColor=#AAB7B8;dashed=0;" vertex="1" parent="1">
          <mxGeometry x="280" y="18" width="660" height="700" as="geometry" />
        </mxCell>
        <mxCell id="Q1-ItS3ApQH2aDQjOX0Z-67" value="Private subnet&lt;br&gt;DB (15)" style="points=[[0,0],[0.25,0],[0.5,0],[0.75,0],[1,0],[1,0.25],[1,0.5],[1,0.75],[1,1],[0.75,1],[0.5,1],[0.25,1],[0,1],[0,0.75],[0,0.5],[0,0.25]];outlineConnect=0;gradientColor=none;html=1;whiteSpace=wrap;fontSize=12;fontStyle=0;container=1;pointerEvents=0;collapsible=0;recursiveResize=0;shape=mxgraph.aws4.group;grIcon=mxgraph.aws4.group_security_group;grStroke=0;strokeColor=#147EBA;fillColor=#E6F2F8;verticalAlign=top;align=left;spacingLeft=30;fontColor=#147EBA;dashed=0;" vertex="1" parent="1">
          <mxGeometry x="810" y="150" width="130" height="430" as="geometry" />
        </mxCell>
        <mxCell id="Q1-ItS3ApQH2aDQjOX0Z-65" value="Private subnet &lt;br&gt;(14)" style="points=[[0,0],[0.25,0],[0.5,0],[0.75,0],[1,0],[1,0.25],[1,0.5],[1,0.75],[1,1],[0.75,1],[0.5,1],[0.25,1],[0,1],[0,0.75],[0,0.5],[0,0.25]];outlineConnect=0;gradientColor=none;html=1;whiteSpace=wrap;fontSize=12;fontStyle=0;container=1;pointerEvents=0;collapsible=0;recursiveResize=0;shape=mxgraph.aws4.group;grIcon=mxgraph.aws4.group_security_group;grStroke=0;strokeColor=#147EBA;fillColor=#E6F2F8;verticalAlign=top;align=left;spacingLeft=30;fontColor=#147EBA;dashed=0;" vertex="1" parent="1">
          <mxGeometry x="560" y="109" width="200" height="511" as="geometry" />
        </mxCell>
        <mxCell id="Q1-ItS3ApQH2aDQjOX0Z-64" value="Public subnet&lt;br&gt;(13)" style="points=[[0,0],[0.25,0],[0.5,0],[0.75,0],[1,0],[1,0.25],[1,0.5],[1,0.75],[1,1],[0.75,1],[0.5,1],[0.25,1],[0,1],[0,0.75],[0,0.5],[0,0.25]];outlineConnect=0;gradientColor=none;html=1;whiteSpace=wrap;fontSize=12;fontStyle=0;container=1;pointerEvents=0;collapsible=0;recursiveResize=0;shape=mxgraph.aws4.group;grIcon=mxgraph.aws4.group_security_group;grStroke=0;strokeColor=#248814;fillColor=#E9F3E6;verticalAlign=top;align=left;spacingLeft=30;fontColor=#248814;dashed=0;" vertex="1" parent="1">
          <mxGeometry x="300" y="123.5" width="230" height="476.5" as="geometry" />
        </mxCell>
        <mxCell id="Q1-ItS3ApQH2aDQjOX0Z-54" style="edgeStyle=orthogonalEdgeStyle;rounded=0;orthogonalLoop=1;jettySize=auto;html=1;entryX=1;entryY=0.5;entryDx=0;entryDy=0;entryPerimeter=0;exitX=0.5;exitY=1;exitDx=0;exitDy=0;exitPerimeter=0;" edge="1" parent="1" source="Q1-ItS3ApQH2aDQjOX0Z-74" target="Q1-ItS3ApQH2aDQjOX0Z-7">
          <mxGeometry relative="1" as="geometry">
            <Array as="points">
              <mxPoint x="1049" y="717" />
            </Array>
          </mxGeometry>
        </mxCell>
        <mxCell id="Q1-ItS3ApQH2aDQjOX0Z-1" value="RDS Multi A-Z DB&lt;br&gt;(10)" style="sketch=0;outlineConnect=0;fontColor=#232F3E;gradientColor=none;fillColor=#2E27AD;strokeColor=none;dashed=0;verticalLabelPosition=bottom;verticalAlign=top;align=center;html=1;fontSize=12;fontStyle=0;aspect=fixed;pointerEvents=1;shape=mxgraph.aws4.rds_multi_az_db_cluster;" vertex="1" parent="1">
          <mxGeometry x="880" y="318" width="78" height="78" as="geometry" />
        </mxCell>
        <mxCell id="Q1-ItS3ApQH2aDQjOX0Z-56" style="edgeStyle=orthogonalEdgeStyle;rounded=0;orthogonalLoop=1;jettySize=auto;html=1;" edge="1" parent="1" source="Q1-ItS3ApQH2aDQjOX0Z-11">
          <mxGeometry relative="1" as="geometry">
            <mxPoint x="110" y="357" as="targetPoint" />
          </mxGeometry>
        </mxCell>
        <mxCell id="Q1-ItS3ApQH2aDQjOX0Z-84" style="edgeStyle=orthogonalEdgeStyle;rounded=0;orthogonalLoop=1;jettySize=auto;html=1;entryX=0;entryY=0.5;entryDx=0;entryDy=0;entryPerimeter=0;dashed=1;" edge="1" parent="1" source="Q1-ItS3ApQH2aDQjOX0Z-11" target="Q1-ItS3ApQH2aDQjOX0Z-77">
          <mxGeometry relative="1" as="geometry">
            <Array as="points">
              <mxPoint x="50" y="440" />
              <mxPoint x="160" y="440" />
              <mxPoint x="160" y="795" />
            </Array>
          </mxGeometry>
        </mxCell>
        <mxCell id="Q1-ItS3ApQH2aDQjOX0Z-11" value="Client " style="sketch=0;outlineConnect=0;fontColor=#232F3E;gradientColor=none;fillColor=#232F3D;strokeColor=none;dashed=0;verticalLabelPosition=bottom;verticalAlign=top;align=center;html=1;fontSize=12;fontStyle=0;aspect=fixed;pointerEvents=1;shape=mxgraph.aws4.client;" vertex="1" parent="1">
          <mxGeometry x="11" y="320" width="78" height="76" as="geometry" />
        </mxCell>
        <mxCell id="Q1-ItS3ApQH2aDQjOX0Z-57" style="edgeStyle=orthogonalEdgeStyle;rounded=0;orthogonalLoop=1;jettySize=auto;html=1;" edge="1" parent="1">
          <mxGeometry relative="1" as="geometry">
            <mxPoint x="210" y="357" as="targetPoint" />
            <mxPoint x="188" y="357" as="sourcePoint" />
          </mxGeometry>
        </mxCell>
        <mxCell id="Q1-ItS3ApQH2aDQjOX0Z-16" value="AWS Shield (2)" style="sketch=0;points=[[0,0,0],[0.25,0,0],[0.5,0,0],[0.75,0,0],[1,0,0],[0,1,0],[0.25,1,0],[0.5,1,0],[0.75,1,0],[1,1,0],[0,0.25,0],[0,0.5,0],[0,0.75,0],[1,0.25,0],[1,0.5,0],[1,0.75,0]];outlineConnect=0;fontColor=#232F3E;gradientColor=#F54749;gradientDirection=north;fillColor=#C7131F;strokeColor=#ffffff;dashed=0;verticalLabelPosition=bottom;verticalAlign=top;align=center;html=1;fontSize=12;fontStyle=0;aspect=fixed;shape=mxgraph.aws4.resourceIcon;resIcon=mxgraph.aws4.shield;" vertex="1" parent="1">
          <mxGeometry x="160" y="210" width="78" height="78" as="geometry" />
        </mxCell>
        <mxCell id="Q1-ItS3ApQH2aDQjOX0Z-58" style="edgeStyle=orthogonalEdgeStyle;rounded=0;orthogonalLoop=1;jettySize=auto;html=1;entryX=0;entryY=0.5;entryDx=0;entryDy=0;entryPerimeter=0;" edge="1" parent="1" source="Q1-ItS3ApQH2aDQjOX0Z-25" target="Q1-ItS3ApQH2aDQjOX0Z-4">
          <mxGeometry relative="1" as="geometry" />
        </mxCell>
        <mxCell id="Q1-ItS3ApQH2aDQjOX0Z-25" value="WAF (3)" style="sketch=0;points=[[0,0,0],[0.25,0,0],[0.5,0,0],[0.75,0,0],[1,0,0],[0,1,0],[0.25,1,0],[0.5,1,0],[0.75,1,0],[1,1,0],[0,0.25,0],[0,0.5,0],[0,0.75,0],[1,0.25,0],[1,0.5,0],[1,0.75,0]];outlineConnect=0;fontColor=#232F3E;gradientColor=#F54749;gradientDirection=north;fillColor=#C7131F;strokeColor=#ffffff;dashed=0;verticalLabelPosition=bottom;verticalAlign=top;align=center;html=1;fontSize=12;fontStyle=0;aspect=fixed;shape=mxgraph.aws4.resourceIcon;resIcon=mxgraph.aws4.waf;" vertex="1" parent="1">
          <mxGeometry x="212" y="320" width="78" height="78" as="geometry" />
        </mxCell>
        <mxCell id="Q1-ItS3ApQH2aDQjOX0Z-59" style="edgeStyle=orthogonalEdgeStyle;rounded=0;orthogonalLoop=1;jettySize=auto;html=1;entryX=0;entryY=0.5;entryDx=0;entryDy=0;entryPerimeter=0;" edge="1" parent="1" source="Q1-ItS3ApQH2aDQjOX0Z-4" target="Q1-ItS3ApQH2aDQjOX0Z-5">
          <mxGeometry relative="1" as="geometry" />
        </mxCell>
        <mxCell id="Q1-ItS3ApQH2aDQjOX0Z-4" value="CloudFront&lt;br&gt;CDN (4)" style="sketch=0;points=[[0,0,0],[0.25,0,0],[0.5,0,0],[0.75,0,0],[1,0,0],[0,1,0],[0.25,1,0],[0.5,1,0],[0.75,1,0],[1,1,0],[0,0.25,0],[0,0.5,0],[0,0.75,0],[1,0.25,0],[1,0.5,0],[1,0.75,0]];outlineConnect=0;fontColor=#232F3E;gradientColor=#945DF2;gradientDirection=north;fillColor=#5A30B5;strokeColor=#ffffff;dashed=0;verticalLabelPosition=bottom;verticalAlign=top;align=center;html=1;fontSize=12;fontStyle=0;aspect=fixed;shape=mxgraph.aws4.resourceIcon;resIcon=mxgraph.aws4.cloudfront;" vertex="1" parent="1">
          <mxGeometry x="310" y="320" width="78" height="78" as="geometry" />
        </mxCell>
        <mxCell id="Q1-ItS3ApQH2aDQjOX0Z-37" style="edgeStyle=orthogonalEdgeStyle;rounded=0;orthogonalLoop=1;jettySize=auto;html=1;entryX=0;entryY=0.5;entryDx=0;entryDy=0;entryPerimeter=0;exitX=0.75;exitY=1;exitDx=0;exitDy=0;exitPerimeter=0;" edge="1" parent="1" source="Q1-ItS3ApQH2aDQjOX0Z-5" target="Q1-ItS3ApQH2aDQjOX0Z-34">
          <mxGeometry relative="1" as="geometry">
            <mxPoint x="459" y="570" as="targetPoint" />
          </mxGeometry>
        </mxCell>
        <mxCell id="Q1-ItS3ApQH2aDQjOX0Z-45" style="edgeStyle=orthogonalEdgeStyle;rounded=0;orthogonalLoop=1;jettySize=auto;html=1;entryX=0;entryY=0.5;entryDx=0;entryDy=0;entryPerimeter=0;exitX=0.75;exitY=0;exitDx=0;exitDy=0;exitPerimeter=0;" edge="1" parent="1" source="Q1-ItS3ApQH2aDQjOX0Z-5" target="Q1-ItS3ApQH2aDQjOX0Z-3">
          <mxGeometry relative="1" as="geometry">
            <mxPoint x="449" y="160" as="targetPoint" />
          </mxGeometry>
        </mxCell>
        <mxCell id="Q1-ItS3ApQH2aDQjOX0Z-5" value="Web Application&lt;br&gt;Load Balancer&lt;br&gt;HTTPS&lt;br&gt;TLS terminaton&lt;br&gt;(5)" style="sketch=0;points=[[0,0,0],[0.25,0,0],[0.5,0,0],[0.75,0,0],[1,0,0],[0,1,0],[0.25,1,0],[0.5,1,0],[0.75,1,0],[1,1,0],[0,0.25,0],[0,0.5,0],[0,0.75,0],[1,0.25,0],[1,0.5,0],[1,0.75,0]];outlineConnect=0;fontColor=#232F3E;gradientColor=#945DF2;gradientDirection=north;fillColor=#5A30B5;strokeColor=#ffffff;dashed=0;verticalLabelPosition=bottom;verticalAlign=top;align=center;html=1;fontSize=12;fontStyle=0;aspect=fixed;shape=mxgraph.aws4.resourceIcon;resIcon=mxgraph.aws4.elastic_load_balancing;" vertex="1" parent="1">
          <mxGeometry x="410" y="320" width="78" height="78" as="geometry" />
        </mxCell>
        <mxCell id="Q1-ItS3ApQH2aDQjOX0Z-40" style="edgeStyle=orthogonalEdgeStyle;rounded=0;orthogonalLoop=1;jettySize=auto;html=1;entryX=0;entryY=0.5;entryDx=0;entryDy=0;entryPerimeter=0;" edge="1" parent="1" source="Q1-ItS3ApQH2aDQjOX0Z-26" target="Q1-ItS3ApQH2aDQjOX0Z-29">
          <mxGeometry relative="1" as="geometry" />
        </mxCell>
        <mxCell id="Q1-ItS3ApQH2aDQjOX0Z-41" style="edgeStyle=orthogonalEdgeStyle;rounded=0;orthogonalLoop=1;jettySize=auto;html=1;entryX=0;entryY=0.5;entryDx=0;entryDy=0;entryPerimeter=0;" edge="1" parent="1" source="Q1-ItS3ApQH2aDQjOX0Z-26" target="Q1-ItS3ApQH2aDQjOX0Z-36">
          <mxGeometry relative="1" as="geometry" />
        </mxCell>
        <mxCell id="Q1-ItS3ApQH2aDQjOX0Z-26" value="Network&lt;br&gt;Load Balancer&lt;br&gt;(8)" style="sketch=0;points=[[0,0,0],[0.25,0,0],[0.5,0,0],[0.75,0,0],[1,0,0],[0,1,0],[0.25,1,0],[0.5,1,0],[0.75,1,0],[1,1,0],[0,0.25,0],[0,0.5,0],[0,0.75,0],[1,0.25,0],[1,0.5,0],[1,0.75,0]];outlineConnect=0;fontColor=#232F3E;gradientColor=#945DF2;gradientDirection=north;fillColor=#5A30B5;strokeColor=#ffffff;dashed=0;verticalLabelPosition=bottom;verticalAlign=top;align=center;html=1;fontSize=12;fontStyle=0;aspect=fixed;shape=mxgraph.aws4.resourceIcon;resIcon=mxgraph.aws4.elastic_load_balancing;" vertex="1" parent="1">
          <mxGeometry x="622" y="318" width="78" height="78" as="geometry" />
        </mxCell>
        <mxCell id="Q1-ItS3ApQH2aDQjOX0Z-39" style="edgeStyle=orthogonalEdgeStyle;rounded=0;orthogonalLoop=1;jettySize=auto;html=1;entryX=0;entryY=0.5;entryDx=0;entryDy=0;entryPerimeter=0;" edge="1" parent="1" source="Q1-ItS3ApQH2aDQjOX0Z-3" target="Q1-ItS3ApQH2aDQjOX0Z-26">
          <mxGeometry relative="1" as="geometry" />
        </mxCell>
        <mxCell id="Q1-ItS3ApQH2aDQjOX0Z-3" value="Web Front End&lt;br&gt;Scaling group&lt;br&gt;port 80&lt;br&gt;(7)" style="sketch=0;points=[[0,0,0],[0.25,0,0],[0.5,0,0],[0.75,0,0],[1,0,0],[0,1,0],[0.25,1,0],[0.5,1,0],[0.75,1,0],[1,1,0],[0,0.25,0],[0,0.5,0],[0,0.75,0],[1,0.25,0],[1,0.5,0],[1,0.75,0]];outlineConnect=0;fontColor=#232F3E;gradientColor=#F78E04;gradientDirection=north;fillColor=#D05C17;strokeColor=#ffffff;dashed=0;verticalLabelPosition=bottom;verticalAlign=top;align=center;html=1;fontSize=12;fontStyle=0;aspect=fixed;shape=mxgraph.aws4.resourceIcon;resIcon=mxgraph.aws4.auto_scaling2;" vertex="1" parent="1">
          <mxGeometry x="500" y="122" width="78" height="78" as="geometry" />
        </mxCell>
        <mxCell id="Q1-ItS3ApQH2aDQjOX0Z-7" value="S3 buckets&lt;br&gt;EC2/API/DB backups" style="sketch=0;points=[[0,0,0],[0.25,0,0],[0.5,0,0],[0.75,0,0],[1,0,0],[0,1,0],[0.25,1,0],[0.5,1,0],[0.75,1,0],[1,1,0],[0,0.25,0],[0,0.5,0],[0,0.75,0],[1,0.25,0],[1,0.5,0],[1,0.75,0]];outlineConnect=0;fontColor=#232F3E;gradientColor=#60A337;gradientDirection=north;fillColor=#277116;strokeColor=#ffffff;dashed=0;verticalLabelPosition=bottom;verticalAlign=top;align=center;html=1;fontSize=12;fontStyle=0;aspect=fixed;shape=mxgraph.aws4.resourceIcon;resIcon=mxgraph.aws4.s3;" vertex="1" parent="1">
          <mxGeometry x="870" y="678" width="78" height="78" as="geometry" />
        </mxCell>
        <mxCell id="Q1-ItS3ApQH2aDQjOX0Z-46" style="edgeStyle=orthogonalEdgeStyle;rounded=0;orthogonalLoop=1;jettySize=auto;html=1;entryX=0;entryY=0.5;entryDx=0;entryDy=0;entryPerimeter=0;exitX=1;exitY=0.25;exitDx=0;exitDy=0;fillColor=#f8cecc;strokeColor=#b85450;" edge="1" parent="1" source="Q1-ItS3ApQH2aDQjOX0Z-27" target="Q1-ItS3ApQH2aDQjOX0Z-44">
          <mxGeometry relative="1" as="geometry">
            <Array as="points">
              <mxPoint x="850" y="125" />
              <mxPoint x="850" y="83" />
            </Array>
          </mxGeometry>
        </mxCell>
        <mxCell id="Q1-ItS3ApQH2aDQjOX0Z-48" style="edgeStyle=orthogonalEdgeStyle;rounded=0;orthogonalLoop=1;jettySize=auto;html=1;exitX=1;exitY=0.75;exitDx=0;exitDy=0;fillColor=#f8cecc;strokeColor=#b85450;" edge="1" parent="1" source="Q1-ItS3ApQH2aDQjOX0Z-27" target="Q1-ItS3ApQH2aDQjOX0Z-13">
          <mxGeometry relative="1" as="geometry" />
        </mxCell>
        <mxCell id="Q1-ItS3ApQH2aDQjOX0Z-87" style="edgeStyle=orthogonalEdgeStyle;rounded=0;orthogonalLoop=1;jettySize=auto;html=1;exitX=0.5;exitY=0;exitDx=0;exitDy=0;entryX=0;entryY=0.5;entryDx=0;entryDy=0;entryPerimeter=0;dashed=1;" edge="1" parent="1" source="Q1-ItS3ApQH2aDQjOX0Z-27" target="Q1-ItS3ApQH2aDQjOX0Z-86">
          <mxGeometry relative="1" as="geometry">
            <Array as="points">
              <mxPoint x="661" y="35" />
              <mxPoint x="610" y="35" />
              <mxPoint x="610" y="-50" />
            </Array>
          </mxGeometry>
        </mxCell>
        <mxCell id="Q1-ItS3ApQH2aDQjOX0Z-27" value="Availability Zone - a&lt;br&gt;(6)" style="fillColor=none;strokeColor=#147EBA;dashed=1;verticalAlign=top;fontStyle=0;fontColor=#147EBA;whiteSpace=wrap;html=1;" vertex="1" parent="1">
          <mxGeometry x="481" y="80" width="360" height="180" as="geometry" />
        </mxCell>
        <mxCell id="Q1-ItS3ApQH2aDQjOX0Z-72" style="edgeStyle=orthogonalEdgeStyle;rounded=0;orthogonalLoop=1;jettySize=auto;html=1;" edge="1" parent="1" source="Q1-ItS3ApQH2aDQjOX0Z-13" target="Q1-ItS3ApQH2aDQjOX0Z-71">
          <mxGeometry relative="1" as="geometry" />
        </mxCell>
        <mxCell id="Q1-ItS3ApQH2aDQjOX0Z-13" value="CloudWatch&lt;br&gt;(12)" style="sketch=0;points=[[0,0,0],[0.25,0,0],[0.5,0,0],[0.75,0,0],[1,0,0],[0,1,0],[0.25,1,0],[0.5,1,0],[0.75,1,0],[1,1,0],[0,0.25,0],[0,0.5,0],[0,0.75,0],[1,0.25,0],[1,0.5,0],[1,0.75,0]];points=[[0,0,0],[0.25,0,0],[0.5,0,0],[0.75,0,0],[1,0,0],[0,1,0],[0.25,1,0],[0.5,1,0],[0.75,1,0],[1,1,0],[0,0.25,0],[0,0.5,0],[0,0.75,0],[1,0.25,0],[1,0.5,0],[1,0.75,0]];outlineConnect=0;fontColor=#232F3E;gradientColor=#F34482;gradientDirection=north;fillColor=#BC1356;strokeColor=#ffffff;dashed=0;verticalLabelPosition=bottom;verticalAlign=top;align=center;html=1;fontSize=12;fontStyle=0;aspect=fixed;shape=mxgraph.aws4.resourceIcon;resIcon=mxgraph.aws4.cloudwatch_2;" vertex="1" parent="1">
          <mxGeometry x="970" y="175.5" width="78" height="78" as="geometry" />
        </mxCell>
        <mxCell id="Q1-ItS3ApQH2aDQjOX0Z-42" style="edgeStyle=orthogonalEdgeStyle;rounded=0;orthogonalLoop=1;jettySize=auto;html=1;exitX=1.005;exitY=0.312;exitDx=0;exitDy=0;exitPerimeter=0;" edge="1" parent="1" source="Q1-ItS3ApQH2aDQjOX0Z-27" target="Q1-ItS3ApQH2aDQjOX0Z-1">
          <mxGeometry relative="1" as="geometry" />
        </mxCell>
        <mxCell id="Q1-ItS3ApQH2aDQjOX0Z-29" value="API Scaling group&lt;br&gt;port 5001&lt;br&gt;(9)" style="sketch=0;points=[[0,0,0],[0.25,0,0],[0.5,0,0],[0.75,0,0],[1,0,0],[0,1,0],[0.25,1,0],[0.5,1,0],[0.75,1,0],[1,1,0],[0,0.25,0],[0,0.5,0],[0,0.75,0],[1,0.25,0],[1,0.5,0],[1,0.75,0]];outlineConnect=0;fontColor=#232F3E;gradientColor=#F78E04;gradientDirection=north;fillColor=#D05C17;strokeColor=#ffffff;dashed=0;verticalLabelPosition=bottom;verticalAlign=top;align=center;html=1;fontSize=12;fontStyle=0;aspect=fixed;shape=mxgraph.aws4.resourceIcon;resIcon=mxgraph.aws4.auto_scaling2;" vertex="1" parent="1">
          <mxGeometry x="740" y="122" width="78" height="78" as="geometry" />
        </mxCell>
        <mxCell id="Q1-ItS3ApQH2aDQjOX0Z-38" style="edgeStyle=orthogonalEdgeStyle;rounded=0;orthogonalLoop=1;jettySize=auto;html=1;entryX=0;entryY=0.5;entryDx=0;entryDy=0;entryPerimeter=0;" edge="1" parent="1" source="Q1-ItS3ApQH2aDQjOX0Z-34" target="Q1-ItS3ApQH2aDQjOX0Z-26">
          <mxGeometry relative="1" as="geometry" />
        </mxCell>
        <mxCell id="Q1-ItS3ApQH2aDQjOX0Z-52" style="edgeStyle=orthogonalEdgeStyle;rounded=0;orthogonalLoop=1;jettySize=auto;html=1;entryX=0;entryY=0.75;entryDx=0;entryDy=0;entryPerimeter=0;" edge="1" parent="1" source="Q1-ItS3ApQH2aDQjOX0Z-34" target="Q1-ItS3ApQH2aDQjOX0Z-7">
          <mxGeometry relative="1" as="geometry">
            <Array as="points">
              <mxPoint x="539" y="737" />
              <mxPoint x="724" y="737" />
            </Array>
          </mxGeometry>
        </mxCell>
        <mxCell id="Q1-ItS3ApQH2aDQjOX0Z-34" value="Web Front End&lt;br&gt;Scaling group&lt;br&gt;port 80&lt;br&gt;(7)" style="sketch=0;points=[[0,0,0],[0.25,0,0],[0.5,0,0],[0.75,0,0],[1,0,0],[0,1,0],[0.25,1,0],[0.5,1,0],[0.75,1,0],[1,1,0],[0,0.25,0],[0,0.5,0],[0,0.75,0],[1,0.25,0],[1,0.5,0],[1,0.75,0]];outlineConnect=0;fontColor=#232F3E;gradientColor=#F78E04;gradientDirection=north;fillColor=#D05C17;strokeColor=#ffffff;dashed=0;verticalLabelPosition=bottom;verticalAlign=top;align=center;html=1;fontSize=12;fontStyle=0;aspect=fixed;shape=mxgraph.aws4.resourceIcon;resIcon=mxgraph.aws4.auto_scaling2;" vertex="1" parent="1">
          <mxGeometry x="500" y="520" width="78" height="78" as="geometry" />
        </mxCell>
        <mxCell id="Q1-ItS3ApQH2aDQjOX0Z-47" style="edgeStyle=orthogonalEdgeStyle;rounded=0;orthogonalLoop=1;jettySize=auto;html=1;entryX=0;entryY=0.5;entryDx=0;entryDy=0;entryPerimeter=0;exitX=1;exitY=0.25;exitDx=0;exitDy=0;fillColor=#f8cecc;strokeColor=#b85450;" edge="1" parent="1" source="Q1-ItS3ApQH2aDQjOX0Z-35" target="Q1-ItS3ApQH2aDQjOX0Z-44">
          <mxGeometry relative="1" as="geometry">
            <Array as="points">
              <mxPoint x="850" y="523" />
              <mxPoint x="850" y="83" />
            </Array>
          </mxGeometry>
        </mxCell>
        <mxCell id="Q1-ItS3ApQH2aDQjOX0Z-50" style="edgeStyle=orthogonalEdgeStyle;rounded=0;orthogonalLoop=1;jettySize=auto;html=1;fillColor=#f8cecc;strokeColor=#b85450;exitX=1;exitY=0.75;exitDx=0;exitDy=0;" edge="1" parent="1" source="Q1-ItS3ApQH2aDQjOX0Z-35" target="Q1-ItS3ApQH2aDQjOX0Z-13">
          <mxGeometry relative="1" as="geometry">
            <Array as="points">
              <mxPoint x="1009" y="613" />
            </Array>
          </mxGeometry>
        </mxCell>
        <mxCell id="Q1-ItS3ApQH2aDQjOX0Z-35" value="Availability Zone - b or c&lt;br&gt;(6)" style="fillColor=none;strokeColor=#147EBA;dashed=1;verticalAlign=top;fontStyle=0;fontColor=#147EBA;whiteSpace=wrap;html=1;" vertex="1" parent="1">
          <mxGeometry x="481" y="490" width="360" height="180" as="geometry" />
        </mxCell>
        <mxCell id="Q1-ItS3ApQH2aDQjOX0Z-43" style="edgeStyle=orthogonalEdgeStyle;rounded=0;orthogonalLoop=1;jettySize=auto;html=1;" edge="1" parent="1" source="Q1-ItS3ApQH2aDQjOX0Z-36" target="Q1-ItS3ApQH2aDQjOX0Z-1">
          <mxGeometry relative="1" as="geometry" />
        </mxCell>
        <mxCell id="Q1-ItS3ApQH2aDQjOX0Z-53" style="edgeStyle=orthogonalEdgeStyle;rounded=0;orthogonalLoop=1;jettySize=auto;html=1;entryX=0;entryY=0.5;entryDx=0;entryDy=0;entryPerimeter=0;" edge="1" parent="1" source="Q1-ItS3ApQH2aDQjOX0Z-36" target="Q1-ItS3ApQH2aDQjOX0Z-7">
          <mxGeometry relative="1" as="geometry">
            <Array as="points">
              <mxPoint x="779" y="717" />
            </Array>
          </mxGeometry>
        </mxCell>
        <mxCell id="Q1-ItS3ApQH2aDQjOX0Z-36" value="API Scaling group&lt;br&gt;port 5001&lt;br&gt;(9)" style="sketch=0;points=[[0,0,0],[0.25,0,0],[0.5,0,0],[0.75,0,0],[1,0,0],[0,1,0],[0.25,1,0],[0.5,1,0],[0.75,1,0],[1,1,0],[0,0.25,0],[0,0.5,0],[0,0.75,0],[1,0.25,0],[1,0.5,0],[1,0.75,0]];outlineConnect=0;fontColor=#232F3E;gradientColor=#F78E04;gradientDirection=north;fillColor=#D05C17;strokeColor=#ffffff;dashed=0;verticalLabelPosition=bottom;verticalAlign=top;align=center;html=1;fontSize=12;fontStyle=0;aspect=fixed;shape=mxgraph.aws4.resourceIcon;resIcon=mxgraph.aws4.auto_scaling2;" vertex="1" parent="1">
          <mxGeometry x="740" y="520" width="78" height="78" as="geometry" />
        </mxCell>
        <mxCell id="Q1-ItS3ApQH2aDQjOX0Z-49" style="edgeStyle=orthogonalEdgeStyle;rounded=0;orthogonalLoop=1;jettySize=auto;html=1;entryX=0.5;entryY=0;entryDx=0;entryDy=0;entryPerimeter=0;exitX=1;exitY=0.5;exitDx=0;exitDy=0;exitPerimeter=0;fillColor=#f8cecc;strokeColor=#b85450;" edge="1" parent="1" source="Q1-ItS3ApQH2aDQjOX0Z-44" target="Q1-ItS3ApQH2aDQjOX0Z-13">
          <mxGeometry relative="1" as="geometry" />
        </mxCell>
        <mxCell id="Q1-ItS3ApQH2aDQjOX0Z-44" value="Guard Duty&lt;br&gt;(11)" style="sketch=0;points=[[0,0,0],[0.25,0,0],[0.5,0,0],[0.75,0,0],[1,0,0],[0,1,0],[0.25,1,0],[0.5,1,0],[0.75,1,0],[1,1,0],[0,0.25,0],[0,0.5,0],[0,0.75,0],[1,0.25,0],[1,0.5,0],[1,0.75,0]];outlineConnect=0;fontColor=#232F3E;gradientColor=#F54749;gradientDirection=north;fillColor=#C7131F;strokeColor=#ffffff;dashed=0;verticalLabelPosition=bottom;verticalAlign=top;align=center;html=1;fontSize=12;fontStyle=0;aspect=fixed;shape=mxgraph.aws4.resourceIcon;resIcon=mxgraph.aws4.guardduty;" vertex="1" parent="1">
          <mxGeometry x="910" y="44" width="78" height="78" as="geometry" />
        </mxCell>
        <mxCell id="Q1-ItS3ApQH2aDQjOX0Z-62" value="Security group&lt;br&gt;Web Front-End&lt;br&gt;ingress/egress" style="fillColor=none;strokeColor=#DD3522;verticalAlign=top;fontStyle=0;fontColor=#DD3522;whiteSpace=wrap;html=1;" vertex="1" parent="1">
          <mxGeometry x="448" y="40" width="162" height="650" as="geometry" />
        </mxCell>
        <mxCell id="Q1-ItS3ApQH2aDQjOX0Z-63" value="Security group&lt;br&gt;API Front-End&lt;br&gt;ingress/egress" style="fillColor=none;strokeColor=#DD3522;verticalAlign=top;fontStyle=0;fontColor=#DD3522;whiteSpace=wrap;html=1;" vertex="1" parent="1">
          <mxGeometry x="700" y="40" width="134" height="650" as="geometry" />
        </mxCell>
        <mxCell id="Q1-ItS3ApQH2aDQjOX0Z-69" value="Security group&lt;br&gt;DB network" style="fillColor=none;strokeColor=#DD3522;verticalAlign=top;fontStyle=0;fontColor=#DD3522;whiteSpace=wrap;html=1;" vertex="1" parent="1">
          <mxGeometry x="858" y="280" width="130" height="180" as="geometry" />
        </mxCell>
        <mxCell id="Q1-ItS3ApQH2aDQjOX0Z-70" value="DNS (1)" style="sketch=0;points=[[0,0,0],[0.25,0,0],[0.5,0,0],[0.75,0,0],[1,0,0],[0,1,0],[0.25,1,0],[0.5,1,0],[0.75,1,0],[1,1,0],[0,0.25,0],[0,0.5,0],[0,0.75,0],[1,0.25,0],[1,0.5,0],[1,0.75,0]];outlineConnect=0;fontColor=#232F3E;gradientColor=#945DF2;gradientDirection=north;fillColor=#5A30B5;strokeColor=#ffffff;dashed=0;verticalLabelPosition=bottom;verticalAlign=top;align=center;html=1;fontSize=12;fontStyle=0;aspect=fixed;shape=mxgraph.aws4.resourceIcon;resIcon=mxgraph.aws4.route_53;" vertex="1" parent="1">
          <mxGeometry x="110" y="323" width="78" height="78" as="geometry" />
        </mxCell>
        <mxCell id="Q1-ItS3ApQH2aDQjOX0Z-71" value="SNS - push notifications&lt;br&gt;for any failure&lt;br&gt;(16)" style="sketch=0;points=[[0,0,0],[0.25,0,0],[0.5,0,0],[0.75,0,0],[1,0,0],[0,1,0],[0.25,1,0],[0.5,1,0],[0.75,1,0],[1,1,0],[0,0.25,0],[0,0.5,0],[0,0.75,0],[1,0.25,0],[1,0.5,0],[1,0.75,0]];outlineConnect=0;fontColor=#232F3E;gradientColor=#FF4F8B;gradientDirection=north;fillColor=#BC1356;strokeColor=#ffffff;dashed=0;verticalLabelPosition=bottom;verticalAlign=top;align=center;html=1;fontSize=12;fontStyle=0;aspect=fixed;shape=mxgraph.aws4.resourceIcon;resIcon=mxgraph.aws4.sns;" vertex="1" parent="1">
          <mxGeometry x="1060" y="318" width="78" height="78" as="geometry" />
        </mxCell>
        <mxCell id="Q1-ItS3ApQH2aDQjOX0Z-73" value="" style="edgeStyle=orthogonalEdgeStyle;rounded=0;orthogonalLoop=1;jettySize=auto;html=1;entryX=0.5;entryY=0;entryDx=0;entryDy=0;entryPerimeter=0;" edge="1" parent="1" source="Q1-ItS3ApQH2aDQjOX0Z-1" target="Q1-ItS3ApQH2aDQjOX0Z-74">
          <mxGeometry relative="1" as="geometry">
            <mxPoint x="958" y="357" as="sourcePoint" />
            <mxPoint x="948" y="717" as="targetPoint" />
            <Array as="points">
              <mxPoint x="1030" y="357" />
              <mxPoint x="1030" y="460" />
              <mxPoint x="1049" y="460" />
            </Array>
          </mxGeometry>
        </mxCell>
        <mxCell id="Q1-ItS3ApQH2aDQjOX0Z-74" value="Lambda&lt;br&gt;DB backups" style="sketch=0;points=[[0,0,0],[0.25,0,0],[0.5,0,0],[0.75,0,0],[1,0,0],[0,1,0],[0.25,1,0],[0.5,1,0],[0.75,1,0],[1,1,0],[0,0.25,0],[0,0.5,0],[0,0.75,0],[1,0.25,0],[1,0.5,0],[1,0.75,0]];outlineConnect=0;fontColor=#232F3E;gradientColor=#945DF2;gradientDirection=north;fillColor=#5A30B5;strokeColor=#ffffff;dashed=0;verticalLabelPosition=bottom;verticalAlign=top;align=center;html=1;fontSize=12;fontStyle=0;aspect=fixed;shape=mxgraph.aws4.resourceIcon;resIcon=mxgraph.aws4.serverless;" vertex="1" parent="1">
          <mxGeometry x="1020" y="500" width="58" height="58" as="geometry" />
        </mxCell>
        <mxCell id="Q1-ItS3ApQH2aDQjOX0Z-75" value="Lambda&lt;br&gt;EC2 backups" style="sketch=0;points=[[0,0,0],[0.25,0,0],[0.5,0,0],[0.75,0,0],[1,0,0],[0,1,0],[0.25,1,0],[0.5,1,0],[0.75,1,0],[1,1,0],[0,0.25,0],[0,0.5,0],[0,0.75,0],[1,0.25,0],[1,0.5,0],[1,0.75,0]];outlineConnect=0;fontColor=#232F3E;gradientColor=#945DF2;gradientDirection=north;fillColor=#5A30B5;strokeColor=#ffffff;dashed=0;verticalLabelPosition=bottom;verticalAlign=top;align=center;html=1;fontSize=12;fontStyle=0;aspect=fixed;shape=mxgraph.aws4.resourceIcon;resIcon=mxgraph.aws4.serverless;" vertex="1" parent="1">
          <mxGeometry x="783" y="698" width="58" height="58" as="geometry" />
        </mxCell>
        <mxCell id="Q1-ItS3ApQH2aDQjOX0Z-79" style="edgeStyle=orthogonalEdgeStyle;rounded=0;orthogonalLoop=1;jettySize=auto;html=1;exitX=1;exitY=0.5;exitDx=0;exitDy=0;exitPerimeter=0;dashed=1;" edge="1" parent="1" source="Q1-ItS3ApQH2aDQjOX0Z-77">
          <mxGeometry relative="1" as="geometry">
            <mxPoint x="980" y="795.3333333333335" as="targetPoint" />
          </mxGeometry>
        </mxCell>
        <mxCell id="Q1-ItS3ApQH2aDQjOX0Z-77" value="OPTIONAL:&lt;br&gt;API Gateway&lt;br&gt;(17)" style="sketch=0;points=[[0,0,0],[0.25,0,0],[0.5,0,0],[0.75,0,0],[1,0,0],[0,1,0],[0.25,1,0],[0.5,1,0],[0.75,1,0],[1,1,0],[0,0.25,0],[0,0.5,0],[0,0.75,0],[1,0.25,0],[1,0.5,0],[1,0.75,0]];outlineConnect=0;fontColor=#232F3E;gradientColor=#FF4F8B;gradientDirection=north;fillColor=#BC1356;strokeColor=#ffffff;dashed=1;verticalLabelPosition=bottom;verticalAlign=top;align=center;html=1;fontSize=12;fontStyle=0;aspect=fixed;shape=mxgraph.aws4.resourceIcon;resIcon=mxgraph.aws4.api_gateway;" vertex="1" parent="1">
          <mxGeometry x="621" y="756" width="78" height="78" as="geometry" />
        </mxCell>
        <mxCell id="Q1-ItS3ApQH2aDQjOX0Z-81" style="edgeStyle=orthogonalEdgeStyle;rounded=0;orthogonalLoop=1;jettySize=auto;html=1;entryX=0.75;entryY=1;entryDx=0;entryDy=0;dashed=1;" edge="1" parent="1" source="Q1-ItS3ApQH2aDQjOX0Z-80" target="Q1-ItS3ApQH2aDQjOX0Z-69">
          <mxGeometry relative="1" as="geometry" />
        </mxCell>
        <mxCell id="Q1-ItS3ApQH2aDQjOX0Z-80" value="OPTIONAL:&lt;br&gt; Lambda&lt;br&gt;event&lt;br&gt;(18)" style="sketch=0;points=[[0,0,0],[0.25,0,0],[0.5,0,0],[0.75,0,0],[1,0,0],[0,1,0],[0.25,1,0],[0.5,1,0],[0.75,1,0],[1,1,0],[0,0.25,0],[0,0.5,0],[0,0.75,0],[1,0.25,0],[1,0.5,0],[1,0.75,0]];outlineConnect=0;fontColor=#232F3E;gradientColor=#945DF2;gradientDirection=north;fillColor=#5A30B5;strokeColor=#ffffff;dashed=1;verticalLabelPosition=bottom;verticalAlign=top;align=center;html=1;fontSize=12;fontStyle=0;aspect=fixed;shape=mxgraph.aws4.resourceIcon;resIcon=mxgraph.aws4.serverless;" vertex="1" parent="1">
          <mxGeometry x="980" y="757" width="78" height="78" as="geometry" />
        </mxCell>
        <mxCell id="Q1-ItS3ApQH2aDQjOX0Z-83" style="edgeStyle=orthogonalEdgeStyle;rounded=0;orthogonalLoop=1;jettySize=auto;html=1;entryX=0;entryY=0.5;entryDx=0;entryDy=0;entryPerimeter=0;dashed=1;" edge="1" parent="1" source="Q1-ItS3ApQH2aDQjOX0Z-82" target="Q1-ItS3ApQH2aDQjOX0Z-77">
          <mxGeometry relative="1" as="geometry">
            <Array as="points">
              <mxPoint x="160" y="590" />
              <mxPoint x="160" y="795" />
            </Array>
          </mxGeometry>
        </mxCell>
        <mxCell id="Q1-ItS3ApQH2aDQjOX0Z-82" value="" style="sketch=0;outlineConnect=0;fontColor=#232F3E;gradientColor=none;fillColor=#232F3D;strokeColor=none;dashed=0;verticalLabelPosition=bottom;verticalAlign=top;align=center;html=1;fontSize=12;fontStyle=0;aspect=fixed;pointerEvents=1;shape=mxgraph.aws4.mobile_client;" vertex="1" parent="1">
          <mxGeometry x="33" y="550" width="41" height="78" as="geometry" />
        </mxCell>
        <mxCell id="Q1-ItS3ApQH2aDQjOX0Z-85" value="User" style="sketch=0;outlineConnect=0;fontColor=#232F3E;gradientColor=none;fillColor=#232F3D;strokeColor=none;dashed=0;verticalLabelPosition=bottom;verticalAlign=top;align=center;html=1;fontSize=12;fontStyle=0;aspect=fixed;pointerEvents=1;shape=mxgraph.aws4.user;" vertex="1" parent="1">
          <mxGeometry x="26" y="460" width="48" height="48" as="geometry" />
        </mxCell>
        <mxCell id="Q1-ItS3ApQH2aDQjOX0Z-88" style="edgeStyle=orthogonalEdgeStyle;rounded=0;orthogonalLoop=1;jettySize=auto;html=1;entryX=0.563;entryY=-0.017;entryDx=0;entryDy=0;entryPerimeter=0;dashed=1;" edge="1" parent="1" source="Q1-ItS3ApQH2aDQjOX0Z-86" target="Q1-ItS3ApQH2aDQjOX0Z-27">
          <mxGeometry relative="1" as="geometry">
            <Array as="points">
              <mxPoint x="750" y="-50" />
              <mxPoint x="750" y="35" />
              <mxPoint x="684" y="35" />
            </Array>
          </mxGeometry>
        </mxCell>
        <mxCell id="Q1-ItS3ApQH2aDQjOX0Z-86" value="OPTIONAL: &lt;br&gt;Cogito for user&lt;br&gt;pool&lt;br&gt;(19)" style="sketch=0;points=[[0,0,0],[0.25,0,0],[0.5,0,0],[0.75,0,0],[1,0,0],[0,1,0],[0.25,1,0],[0.5,1,0],[0.75,1,0],[1,1,0],[0,0.25,0],[0,0.5,0],[0,0.75,0],[1,0.25,0],[1,0.5,0],[1,0.75,0]];outlineConnect=0;fontColor=#232F3E;gradientColor=#F54749;gradientDirection=south;fillColor=#C7131F;strokeColor=#ffffff;dashed=1;verticalLabelPosition=bottom;verticalAlign=top;align=center;html=1;fontSize=12;fontStyle=0;aspect=fixed;shape=mxgraph.aws4.resourceIcon;resIcon=mxgraph.aws4.cognito;" vertex="1" parent="1">
          <mxGeometry x="630" y="-90" width="80" height="80" as="geometry" />
        </mxCell>
      </root>
    </mxGraphModel>
  </diagram>
</mxfile>
